<?xml version="1.0" encoding="utf-8"?>
<!-- Generator: Adobe Illustrator 26.0.3, SVG Export Plug-In . SVG Version: 6.00 Build 0)  -->
<svg version="1.1" id="레이어_1" xmlns="http://www.w3.org/2000/svg" xmlns:xlink="http://www.w3.org/1999/xlink" x="0px"
	 y="0px" viewBox="0 0 100 100" style="enable-background:new 0 0 100 100;" xml:space="preserve">
<style type="text/css">
	.st0{fill:#BC6C15;}
	.st1{fill:#FFFFFF;}
	.st2{fill:#E0B17E;}
	.st3{fill:#33150D;}
	.st4{fill:#402214;}
	.st5{fill:#E9DECA;}
	.st6{fill:#33160E;}
	.st7{fill:#D68485;}
	.st8{fill:#E09B9E;}
	.st9{fill:#866044;}
</style>
<g>
	<path class="st0" d="M4.5,77.3C4.6,77.2,4.8,77,5,76.8c0.2-0.2,0.5-0.3,0.8-0.4C6.2,76.2,6.6,76.1,7,76s0.8-0.2,1.3-0.2
		c2.3-0.1,4.1,0.4,5.4,1.4c1.2,1,1.9,2.5,1.9,4.6v4.5c0,2-0.6,3.6-1.9,4.6s-3,1.5-5.4,1.4c-0.5,0-1-0.1-1.4-0.2
		C6.4,92,6,91.9,5.6,91.7v5c0,0.5-0.1,0.8-0.4,1c-0.2,0.2-0.5,0.2-0.8,0.2H0.9v-19c0-0.4,0-0.7-0.2-0.9c-0.1-0.2-0.2-0.5-0.4-0.7
		C0.1,76.9,0,76.6,0,76.4c0-0.2,0.2-0.3,0.5-0.3h3.1c0.3,0,0.6,0.1,0.7,0.2c0.2,0.1,0.2,0.4,0.2,0.8L4.5,77.3L4.5,77.3z M5.6,86.9
		c0,1,0.1,1.8,0.2,2.4c0.1,0.6,0.3,1,0.6,1.3s0.5,0.5,0.8,0.6s0.6,0.1,0.9,0.1c0.3,0,0.7,0,1-0.1s0.6-0.3,0.8-0.6s0.4-0.7,0.6-1.3
		c0.1-0.6,0.2-1.4,0.2-2.4v-5.5c0-1-0.1-1.8-0.2-2.4s-0.4-1-0.6-1.3s-0.5-0.5-0.8-0.6C8.8,77.1,8.5,77,8.2,77c-0.3,0-0.7,0-1,0.1
		c-0.3,0.1-0.6,0.3-0.8,0.6S6,78.5,5.8,79.1c-0.1,0.6-0.2,1.4-0.2,2.4C5.6,81.4,5.6,86.9,5.6,86.9z"/>
	<path class="st1" d="M17.9,92V80c0-0.4,0-0.7-0.2-0.9c-0.1-0.2-0.2-0.5-0.4-0.7c-0.2-0.4-0.3-0.7-0.4-0.8s0.1-0.3,0.5-0.3h4
		c0.3,0,0.6,0.1,0.8,0.2s0.4,0.5,0.4,1v12.4c0,0.5-0.1,0.8-0.4,1S21.7,92,21.4,92C21.4,92,17.9,92,17.9,92z M17.4,72.8
		c0-0.4,0.1-0.7,0.2-1c0.1-0.3,0.3-0.6,0.5-0.8c0.2-0.2,0.5-0.4,0.8-0.6c0.3-0.1,0.6-0.2,1-0.2s0.7,0.1,1,0.2
		c0.3,0.1,0.6,0.3,0.8,0.6s0.4,0.5,0.5,0.8s0.2,0.7,0.2,1c0,0.4-0.1,0.7-0.2,1c-0.1,0.3-0.3,0.6-0.5,0.8c-0.2,0.2-0.5,0.4-0.8,0.6
		c-0.3,0.1-0.7,0.2-1,0.2s-0.7-0.1-1-0.2c-0.3-0.1-0.6-0.3-0.8-0.6s-0.4-0.5-0.5-0.8C17.5,73.5,17.4,73.2,17.4,72.8z"/>
	<path class="st1" d="M25.6,92V73.5c0-0.4,0-0.7-0.2-0.9c-0.1-0.2-0.2-0.5-0.4-0.7c-0.2-0.4-0.3-0.7-0.4-0.8s0.1-0.3,0.5-0.3h4
		c0.3,0,0.6,0.1,0.8,0.2s0.4,0.5,0.4,1v18.9c0,0.5-0.1,0.8-0.4,1S29.5,92,29.1,92L25.6,92L25.6,92z"/>
	<path class="st1" d="M46.3,92.1h-3.4v-1.2c-0.1,0.1-0.3,0.3-0.5,0.4c-0.2,0.2-0.5,0.3-0.8,0.4c-0.3,0.1-0.7,0.2-1.1,0.3
		s-0.8,0.2-1.3,0.2c-2.3,0.1-4.1-0.4-5.4-1.4c-1.3-1-2-2.5-2-4.6v-2.8c0-1,0.2-1.9,0.5-2.7s0.8-1.4,1.5-2s1.4-0.9,2.3-1.1
		s2-0.3,3.1-0.2c0.2,0,0.4,0.1,0.7,0.1c0.2,0.1,0.5,0.1,0.7,0.2c0.2,0.1,0.4,0.2,0.6,0.2c0.2,0.1,0.3,0.2,0.4,0.3v-4.8
		c0-0.4,0-0.7-0.2-0.9c-0.1-0.2-0.2-0.5-0.4-0.7c-0.2-0.4-0.3-0.7-0.3-0.8s0.2-0.3,0.5-0.3h4c0.3,0,0.6,0.1,0.8,0.2s0.4,0.5,0.4,1
		L46.3,92.1L46.3,92.1z M41.6,83.2c0-1-0.1-1.8-0.2-2.4c-0.1-0.6-0.3-1-0.6-1.3c-0.2-0.3-0.5-0.5-0.8-0.6c-0.3-0.1-0.6-0.1-1-0.1
		c-0.3,0-0.6,0-1,0.1c-0.3,0.1-0.6,0.3-0.8,0.6c-0.2,0.3-0.4,0.7-0.6,1.3c-0.2,0.6-0.2,1.4-0.2,2.4V87c0,1,0.1,1.8,0.2,2.4
		c0.2,0.6,0.3,1,0.6,1.3s0.5,0.5,0.8,0.6c0.3,0.1,0.6,0.1,1,0.1c0.3,0,0.6,0,0.9-0.1s0.6-0.3,0.8-0.6s0.4-0.7,0.6-1.3
		c0.1-0.6,0.2-1.4,0.2-2.4L41.6,83.2L41.6,83.2z"/>
	<path class="st1" d="M53,91.8c-0.2,0.2-0.5,0.2-0.8,0.2h-3.5V79c0-0.4,0-0.7-0.2-0.9c-0.1-0.2-0.2-0.5-0.4-0.7
		c-0.2-0.4-0.3-0.7-0.3-0.8s0.2-0.3,0.5-0.3h4c0.2,0,0.5,0,0.7,0.1s0.4,0.3,0.5,0.5c0.4-0.2,0.9-0.3,1.3-0.4
		c0.4-0.1,0.8-0.2,1.2-0.2c0.3,0,0.6,0,0.9,0.1s0.6,0.2,0.9,0.3c0.3,0.1,0.5,0.3,0.8,0.5s0.4,0.4,0.5,0.7l-0.9,0.6
		c-0.2-0.3-0.4-0.5-0.7-0.7c-0.3-0.2-0.7-0.3-1.2-0.3c-0.4,0-0.8,0.1-1.1,0.2s-0.6,0.3-0.8,0.6c-0.2,0.2-0.4,0.5-0.5,0.8
		s-0.3,0.7-0.3,1v10.7C53.4,91.3,53.3,91.6,53,91.8z"/>
	<path class="st1" d="M64.6,86.6c0,1,0.1,1.8,0.2,2.4c0.1,0.6,0.3,1,0.5,1.3c0.2,0.3,0.5,0.5,0.8,0.6s0.6,0.1,0.9,0.1
		c0.2,0,0.4,0,0.6-0.1c0.2,0,0.4-0.1,0.6-0.2c0.2-0.1,0.4-0.2,0.6-0.4s0.4-0.4,0.6-0.8c0.3-0.5,0.4-0.9,0.5-1.4s0.2-0.9,0.2-1.1
		V76.2h3.3c0.3,0,0.6,0.1,0.8,0.2c0.3,0.2,0.4,0.5,0.4,1v14.8h-4.5v-1.3c-0.4,0.4-0.9,0.7-1.4,0.9c-0.5,0.2-1,0.4-1.6,0.4
		c-1.2,0.1-2.2,0-3-0.2s-1.6-0.6-2.2-1.2s-1-1.2-1.3-2c-0.3-0.8-0.5-1.7-0.5-2.7V79c0-0.4,0-0.7-0.2-0.9c-0.1-0.2-0.2-0.5-0.4-0.7
		c-0.2-0.4-0.3-0.7-0.3-0.8s0.2-0.3,0.5-0.3h3.7c0.3,0,0.6,0.1,0.8,0.2s0.4,0.5,0.4,1L64.6,86.6L64.6,86.6z"/>
	<path class="st1" d="M90.3,92H86V81.8c0-1-0.1-1.8-0.2-2.4s-0.3-1-0.5-1.3c-0.2-0.3-0.5-0.5-0.8-0.6c-0.3-0.1-0.6-0.1-0.9-0.1
		c-0.4,0-0.8,0.1-1.2,0.2s-0.8,0.5-1.1,1.1v12.1c0,0.5-0.1,0.8-0.4,1S80.4,92,80.1,92h-3V79c0-0.4,0-0.7-0.2-0.9
		c-0.1-0.2-0.2-0.5-0.4-0.7c-0.2-0.4-0.3-0.7-0.3-0.8s0.2-0.3,0.5-0.3h3.5c0.2,0,0.4,0,0.7,0.1s0.4,0.2,0.4,0.5
		c0.2-0.1,0.6-0.3,0.9-0.4c0.4-0.1,0.8-0.2,1.3-0.3c1.5-0.1,2.7,0,3.7,0.5c0.9,0.4,1.6,1,2.1,1.7c0.4-0.6,0.9-1.1,1.6-1.5
		c0.7-0.4,1.5-0.6,2.4-0.7c1.2-0.1,2.2,0,3,0.2s1.6,0.6,2.1,1.1c0.6,0.5,1,1.2,1.3,2c0.3,0.8,0.4,1.7,0.4,2.7V92h-4.2V81.8
		c0-1-0.1-1.8-0.2-2.4s-0.3-1-0.5-1.3c-0.2-0.3-0.5-0.5-0.8-0.6c-0.3-0.1-0.6-0.1-0.9-0.1c-0.2,0-0.4,0-0.6,0.1
		c-0.2,0-0.4,0.1-0.6,0.2s-0.4,0.2-0.6,0.4s-0.4,0.4-0.6,0.8c-0.1,0.2-0.3,0.5-0.3,0.7c-0.1,0.2-0.1,0.5-0.2,0.7s-0.1,0.4-0.1,0.6
		c0,0.2,0,0.4-0.1,0.5c0,0.2,0,0.3,0,0.5s0,0.3,0,0.5L90.3,92L90.3,92z"/>
</g>
<g>
	<path class="st1" d="M33.1,99.1c0.1,0.1,0.3,0.1,0.4,0.2s0.2,0.1,0.3,0.1c0.3,0,0.5-0.1,0.6-0.4c0-0.2,0-0.3-0.2-0.4
		s-0.3-0.2-0.5-0.4c-0.1-0.1-0.2-0.2-0.4-0.2s-0.2-0.2-0.3-0.2c-0.1-0.1-0.2-0.2-0.2-0.3s-0.1-0.2-0.1-0.4c0-0.3,0.1-0.6,0.4-0.8
		c0.3-0.2,0.6-0.3,1-0.3c0.2,0,0.3,0,0.5,0s0.3,0.1,0.4,0.1c0.1,0,0.1,0.1,0.2,0.1c0,0,0,0.1,0,0.2l-0.1,0.3c0,0.1-0.1,0.1-0.1,0.1
		c-0.1,0-0.1,0-0.2-0.1c-0.1-0.1-0.2-0.1-0.3-0.1c-0.1,0-0.2-0.1-0.3-0.1c-0.2,0-0.3,0-0.3,0.1c-0.1,0.1-0.1,0.2-0.1,0.3
		c0,0.1,0,0.2,0.1,0.2c0,0.1,0.1,0.1,0.2,0.2l0.6,0.4c0.2,0.2,0.4,0.4,0.5,0.5s0.2,0.4,0.2,0.6c0,0.2,0,0.3-0.1,0.5
		c-0.1,0.1-0.2,0.3-0.3,0.4s-0.3,0.2-0.5,0.2s-0.4,0.1-0.6,0.1c-0.2,0-0.4,0-0.6-0.1c-0.2,0-0.4-0.1-0.5-0.2c-0.1,0-0.1-0.1-0.2-0.1
		c0,0,0-0.1,0-0.2l0.1-0.3c0-0.1,0.1-0.1,0.1-0.1S33,99,33.1,99.1z"/>
	<path class="st1" d="M36.1,94.9c0-0.2,0-0.3,0.2-0.4s0.2-0.2,0.4-0.2s0.3,0.1,0.4,0.2s0.2,0.2,0.2,0.4c0,0.2-0.1,0.3-0.2,0.4
		c-0.1,0.1-0.2,0.2-0.4,0.2c-0.2,0-0.3-0.1-0.4-0.2C36.2,95.2,36.1,95.1,36.1,94.9z M36.2,96.1c0-0.1,0.1-0.2,0.2-0.2H37
		c0.1,0,0.2,0.1,0.2,0.2v3.7c0,0.1-0.1,0.2-0.2,0.2h-0.6c-0.1,0-0.2-0.1-0.2-0.2V96.1z"/>
	<path class="st1" d="M41.7,99.7c0,0.1-0.1,0.2-0.2,0.2h-0.7c0,0-0.1,0-0.1-0.1s0-0.1,0-0.1v-2.2c0-0.3-0.1-0.6-0.2-0.8
		c-0.1-0.2-0.3-0.3-0.6-0.3c-0.2,0-0.4,0.1-0.6,0.3c-0.2,0.2-0.2,0.4-0.2,0.8v2.2c0,0.1-0.1,0.2-0.2,0.2h-0.6c0,0-0.1,0-0.1-0.1
		s0-0.1,0-0.1V96c0-0.1,0-0.1,0-0.1s0.1-0.1,0.1-0.1h0.6c0.1,0,0.2,0.1,0.2,0.2v0.2c0.1-0.1,0.3-0.2,0.5-0.3s0.4-0.1,0.6-0.1
		c0.5,0,0.9,0.1,1.1,0.4s0.4,0.7,0.4,1.2C41.7,97.4,41.7,99.7,41.7,99.7z"/>
	<path class="st1" d="M45.5,99.8c-0.2,0.1-0.3,0.1-0.5,0.2c-0.2,0-0.3,0.1-0.5,0.1c-0.4,0-0.7-0.1-1-0.2c-0.3-0.1-0.5-0.3-0.7-0.5
		c-0.2-0.2-0.3-0.4-0.4-0.7c-0.1-0.2-0.1-0.5-0.1-0.7c0-0.3,0-0.5,0.1-0.8s0.2-0.5,0.4-0.7s0.4-0.4,0.7-0.5s0.6-0.2,0.9-0.2
		c0.1,0,0.3,0,0.4,0c0.2,0,0.3,0.1,0.4,0.1c0.1,0,0.1,0.1,0.2,0.1c0,0,0,0.1,0,0.2l-0.1,0.3c0,0.1-0.1,0.1-0.1,0.1
		c-0.1,0-0.1,0-0.2-0.1c-0.1-0.1-0.2-0.1-0.3-0.1s-0.2,0-0.3,0c-0.1,0-0.3,0-0.4,0.1c-0.1,0.1-0.3,0.2-0.4,0.3
		c-0.1,0.1-0.2,0.3-0.3,0.4c-0.1,0.2-0.1,0.4-0.1,0.6c0,0.4,0.1,0.7,0.3,1c0.1,0.1,0.2,0.2,0.4,0.3c0.2,0.1,0.3,0.1,0.5,0.1
		c0.1,0,0.2,0,0.3,0c0.1,0,0.2-0.1,0.4-0.2c0.1,0,0.1-0.1,0.2-0.1s0.1,0.1,0.1,0.1l0,0.3c0,0.1,0,0.1,0,0.2
		C45.6,99.7,45.6,99.7,45.5,99.8z"/>
	<path class="st1" d="M47.1,98.1c0,0.4,0.1,0.7,0.3,0.9s0.5,0.3,0.8,0.3c0.3,0,0.7-0.1,1-0.3c0,0,0.1-0.1,0.2-0.1s0.1,0.1,0.1,0.1
		l0.1,0.3c0,0.1,0,0.1,0,0.2c0,0-0.1,0.1-0.1,0.1c-0.2,0.1-0.4,0.2-0.6,0.2c-0.2,0-0.4,0.1-0.7,0.1c-0.3,0-0.6-0.1-0.8-0.2
		s-0.5-0.2-0.6-0.4s-0.3-0.4-0.4-0.7s-0.1-0.6-0.1-0.9c0-0.3,0-0.6,0.1-0.9c0.1-0.2,0.2-0.5,0.4-0.6c0.2-0.2,0.4-0.3,0.6-0.4
		c0.2-0.1,0.5-0.1,0.7-0.1c0.3,0,0.5,0.1,0.8,0.1c0.2,0.1,0.4,0.2,0.6,0.4c0.2,0.3,0.4,0.6,0.5,1c0,0.4-0.2,0.7-0.6,0.7L47.1,98.1
		L47.1,98.1z M48.9,97.2c0-0.1,0-0.2-0.1-0.3s-0.1-0.2-0.1-0.2c-0.2-0.2-0.4-0.3-0.6-0.3c-0.2,0-0.5,0.1-0.6,0.3
		c-0.1,0.1-0.1,0.2-0.2,0.3c0,0.1-0.1,0.3-0.1,0.4h1.5c0.1,0,0.1,0,0.2-0.1S48.9,97.3,48.9,97.2z"/>
	<path class="st0" d="M54.4,94.6H55c0,0,0.1,0,0.1,0c0,0,0,0.1,0,0.1v5.1c0,0,0,0.1,0,0.1s0,0-0.1,0h-0.8c0,0,0,0-0.1,0
		c0,0,0-0.1,0-0.1v-4.3l-0.9,0.4c0,0-0.1,0-0.1,0s0-0.1,0-0.1v-0.5c0-0.1,0-0.1,0.1-0.1L54.4,94.6z"/>
	<path class="st0" d="M56.8,99.4c0.5-0.1,0.9-0.2,1.2-0.5c0.2-0.1,0.3-0.3,0.4-0.5c0.1-0.2,0.2-0.4,0.2-0.6c-0.1,0-0.2,0.1-0.3,0.1
		c-0.1,0-0.2,0-0.3,0c-0.5,0-0.9-0.2-1.2-0.4c-0.3-0.3-0.5-0.7-0.5-1.3c0-0.2,0-0.5,0.1-0.7c0.1-0.2,0.2-0.4,0.3-0.6
		c0.2-0.2,0.3-0.3,0.5-0.4c0.2-0.1,0.4-0.1,0.7-0.1c0.2,0,0.5,0.1,0.7,0.1c0.2,0.1,0.4,0.2,0.5,0.3c0.2,0.2,0.3,0.3,0.4,0.6
		c0.1,0.2,0.1,0.5,0.1,0.7c0,0.5,0,1-0.2,1.4c-0.1,0.4-0.3,0.8-0.6,1.2c-0.3,0.3-0.6,0.6-1,0.8s-0.8,0.3-1.4,0.3c0,0,0,0-0.1,0
		c0,0,0,0,0-0.1v-0.4C56.7,99.4,56.7,99.4,56.8,99.4C56.8,99.4,56.8,99.4,56.8,99.4z M58.9,96.3c0-0.3-0.1-0.6-0.2-0.8
		c-0.1-0.2-0.3-0.3-0.5-0.3s-0.4,0.1-0.5,0.3c-0.1,0.2-0.2,0.5-0.2,0.8c0,0.3,0.1,0.6,0.2,0.8c0.1,0.2,0.3,0.3,0.5,0.3
		c0.2,0,0.4-0.1,0.5-0.3S58.9,96.6,58.9,96.3z"/>
	<path class="st0" d="M60.6,99.4c0.5-0.1,0.9-0.2,1.2-0.5c0.2-0.1,0.3-0.3,0.4-0.5c0.1-0.2,0.2-0.4,0.2-0.6c-0.1,0-0.2,0.1-0.3,0.1
		c-0.1,0-0.2,0-0.3,0c-0.5,0-0.9-0.2-1.2-0.4c-0.3-0.3-0.5-0.7-0.5-1.3c0-0.2,0-0.5,0.1-0.7c0.1-0.2,0.2-0.4,0.3-0.6
		c0.2-0.2,0.3-0.3,0.5-0.4c0.2-0.1,0.4-0.1,0.7-0.1c0.2,0,0.5,0.1,0.7,0.1c0.2,0.1,0.4,0.2,0.5,0.3c0.2,0.2,0.3,0.3,0.4,0.6
		c0.1,0.2,0.1,0.5,0.1,0.7c0,0.5,0,1-0.2,1.4c-0.1,0.4-0.3,0.8-0.6,1.2c-0.3,0.3-0.6,0.6-1,0.8s-0.8,0.3-1.4,0.3c0,0,0,0,0,0
		c0,0,0,0,0-0.1L60.6,99.4C60.5,99.4,60.5,99.4,60.6,99.4C60.6,99.4,60.6,99.4,60.6,99.4z M62.6,96.3c0-0.3-0.1-0.6-0.2-0.8
		c-0.1-0.2-0.3-0.3-0.5-0.3s-0.3,0.1-0.5,0.3c-0.1,0.2-0.2,0.5-0.2,0.8c0,0.3,0.1,0.6,0.2,0.8c0.1,0.2,0.3,0.3,0.5,0.3
		c0.2,0,0.4-0.1,0.5-0.3C62.6,96.9,62.6,96.6,62.6,96.3z"/>
	<path class="st0" d="M65.4,97.8c0.3-0.3,0.5-0.7,0.6-0.9c0.1-0.2,0.2-0.5,0.2-0.8c0-0.1,0-0.2-0.1-0.3c0-0.1-0.1-0.2-0.2-0.2
		s-0.2-0.1-0.2-0.2s-0.2-0.1-0.3-0.1c-0.2,0-0.3,0.1-0.5,0.2s-0.3,0.2-0.5,0.4c0,0-0.1,0-0.1,0c0,0-0.1-0.1-0.1-0.1l-0.2-0.5
		c0-0.1,0-0.1,0.1-0.2c0.1-0.1,0.1-0.1,0.2-0.2s0.2-0.1,0.2-0.2c0.2-0.1,0.5-0.2,0.8-0.2c0.5,0,0.9,0.1,1.2,0.4
		c0.3,0.3,0.5,0.6,0.5,1c0,0.1,0,0.3,0,0.4c0,0.1-0.1,0.3-0.2,0.4c-0.1,0.3-0.4,0.7-0.8,1.2l-1,1.2h2c0,0,0,0,0.1,0s0,0,0,0.1v0.6
		c0,0,0,0.1,0,0.1c0,0,0,0-0.1,0h-3c0,0,0,0-0.1,0s0,0,0-0.1v-0.4c0,0,0-0.1,0-0.1c0,0,0-0.1,0.1-0.1L65.4,97.8z"/>
</g>
<g>
	<g>
		<circle class="st2" cx="50" cy="34.2" r="34.2"/>
	</g>
	<path class="st3" d="M50,67.3c-18.2,0-33.1-14.8-33.1-33.1S31.8,1.2,50,1.2S83.1,16,83.1,34.2S68.2,67.3,50,67.3z M50,1.7
		c-18,0-32.6,14.6-32.6,32.6S32,66.8,50,66.8s32.6-14.6,32.6-32.6S68,1.7,50,1.7z"/>
	<path class="st3" d="M50,65.7L50,65.7c-1.4-0.1-2.8-0.2-4.1-0.4c-0.1,0-0.2-0.2-0.2-0.3c0-0.1,0.2-0.2,0.3-0.2
		c1.3,0.2,2.6,0.3,4,0.3c0.1,0,0.3,0.1,0.3,0.2C50.3,65.6,50.2,65.7,50,65.7z M54.1,65.4c-0.1,0-0.2-0.1-0.2-0.2
		c0-0.1,0.1-0.3,0.2-0.3c1.3-0.2,2.7-0.4,4-0.8c0.1,0,0.3,0,0.3,0.2c0,0.1,0,0.3-0.2,0.3C56.8,64.9,55.5,65.2,54.1,65.4
		C54.1,65.4,54.1,65.4,54.1,65.4z M42,64.5C42,64.5,41.9,64.5,42,64.5c-1.4-0.3-2.7-0.8-4-1.3c-0.1,0-0.2-0.2-0.1-0.3
		s0.2-0.2,0.3-0.1c1.2,0.5,2.5,0.9,3.8,1.2c0.1,0,0.2,0.2,0.2,0.3C42.2,64.4,42.1,64.5,42,64.5z M62,63.3c-0.1,0-0.2-0.1-0.2-0.2
		c0-0.1,0-0.3,0.1-0.3c1.2-0.5,2.5-1.1,3.6-1.8c0.1-0.1,0.3,0,0.3,0.1s0,0.3-0.1,0.3C64.5,62.1,63.3,62.7,62,63.3
		C62,63.3,62,63.3,62,63.3z M34.4,61.6c0,0-0.1,0-0.1,0c-1.2-0.7-2.4-1.4-3.5-2.2c-0.1-0.1-0.1-0.2,0-0.3c0.1-0.1,0.2-0.1,0.4,0
		c1.1,0.8,2.2,1.5,3.4,2.2c0.1,0.1,0.2,0.2,0.1,0.3C34.6,61.5,34.5,61.6,34.4,61.6z M69,59.2c-0.1,0-0.2,0-0.2-0.1
		c-0.1-0.1-0.1-0.3,0.1-0.3c1.1-0.8,2.1-1.7,3-2.7c0.1-0.1,0.3-0.1,0.3,0s0.1,0.3,0,0.3c-1,1-2,1.9-3.1,2.7
		C69.1,59.2,69,59.2,69,59.2z M27.9,56.7c-0.1,0-0.1,0-0.2-0.1c-1-1-1.9-2-2.7-3.1c-0.1-0.1-0.1-0.3,0-0.3c0.1-0.1,0.3-0.1,0.4,0
		c0.8,1.1,1.7,2.1,2.6,3c0.1,0.1,0.1,0.3,0,0.3C28,56.7,28,56.7,27.9,56.7z M74.7,53.5c-0.1,0-0.1,0-0.2,0c-0.1-0.1-0.1-0.2-0.1-0.3
		c0.8-1.1,1.6-2.2,2.2-3.4c0.1-0.1,0.2-0.2,0.3-0.1c0.1,0.1,0.2,0.2,0.1,0.3c-0.7,1.2-1.4,2.3-2.3,3.4
		C74.9,53.4,74.8,53.5,74.7,53.5z M23,50.2c-0.1,0-0.2,0-0.2-0.1c-0.7-1.2-1.2-2.4-1.8-3.7c0-0.1,0-0.3,0.1-0.3s0.3,0,0.3,0.1
		c0.5,1.3,1.1,2.5,1.7,3.7c0.1,0.1,0,0.3-0.1,0.3C23.1,50.2,23.1,50.2,23,50.2z M78.8,46.4C78.8,46.4,78.7,46.4,78.8,46.4
		c-0.2-0.1-0.3-0.2-0.2-0.4c0.5-1.2,0.9-2.5,1.3-3.8c0-0.1,0.2-0.2,0.3-0.2c0.1,0,0.2,0.2,0.2,0.3C80,43.7,79.6,45,79,46.3
		C79,46.4,78.9,46.4,78.8,46.4z M20,42.6c-0.1,0-0.2-0.1-0.2-0.2c-0.3-1.3-0.6-2.7-0.8-4c0-0.1,0.1-0.3,0.2-0.3
		c0.1,0,0.3,0.1,0.3,0.2c0.2,1.3,0.4,2.7,0.8,4C20.3,42.5,20.2,42.6,20,42.6C20.1,42.6,20,42.6,20,42.6z M80.9,38.6
		C80.9,38.6,80.9,38.6,80.9,38.6c-0.2,0-0.3-0.1-0.2-0.3c0.2-1.3,0.3-2.7,0.3-4v-0.1c0-0.1,0.1-0.2,0.2-0.2s0.2,0.1,0.2,0.2v0.1
		c0,1.4-0.1,2.8-0.3,4.1C81.1,38.5,81,38.6,80.9,38.6z M19,34.5c-0.1,0-0.2-0.1-0.2-0.2v-0.1c0-1.3,0.1-2.7,0.2-4
		c0-0.1,0.1-0.2,0.3-0.2c0.1,0,0.2,0.1,0.2,0.3c-0.2,1.3-0.2,2.7-0.2,4C19.3,34.4,19.1,34.5,19,34.5z M80.9,30.3
		c-0.1,0-0.2-0.1-0.2-0.2c-0.2-1.3-0.4-2.7-0.8-4c0-0.1,0.1-0.3,0.2-0.3c0.1,0,0.3,0,0.3,0.2c0.4,1.3,0.6,2.7,0.8,4
		C81.1,30.2,81,30.3,80.9,30.3C80.9,30.3,80.9,30.3,80.9,30.3z M20,26.5C20,26.5,19.9,26.5,20,26.5c-0.2,0-0.3-0.2-0.2-0.3
		c0.3-1.3,0.8-2.6,1.2-3.9c0-0.1,0.2-0.2,0.3-0.1c0.1,0,0.2,0.2,0.1,0.3c-0.5,1.2-0.9,2.5-1.2,3.9C20.2,26.4,20.1,26.5,20,26.5z
		 M78.7,22.5c-0.1,0-0.2-0.1-0.2-0.1c-0.5-1.2-1.1-2.5-1.8-3.6c-0.1-0.1,0-0.3,0.1-0.3c0.1-0.1,0.3,0,0.3,0.1
		c0.7,1.2,1.3,2.4,1.8,3.7C79,22.2,79,22.4,78.7,22.5C78.8,22.5,78.8,22.5,78.7,22.5z M23,18.9c0,0-0.1,0-0.1,0
		c-0.1-0.1-0.2-0.2-0.1-0.3c0.7-1.2,1.4-2.4,2.2-3.4C25,15,25.2,15,25.3,15s0.1,0.2,0,0.4c-0.8,1.1-1.5,2.2-2.2,3.4
		C23.1,18.9,23,18.9,23,18.9z M74.7,15.4c-0.1,0-0.2,0-0.2-0.1c-0.8-1.1-1.7-2.1-2.7-3c-0.1-0.1-0.1-0.3,0-0.4
		c0.1-0.1,0.2-0.1,0.3,0c1,1,1.9,2,2.7,3.1c0.1,0.1,0.1,0.3,0,0.4C74.8,15.4,74.7,15.4,74.7,15.4z M27.8,12.4c-0.1,0-0.1,0-0.2-0.1
		c-0.1-0.1-0.1-0.3,0-0.4c1-1,2-1.9,3.1-2.7c0.1-0.1,0.3-0.1,0.4,0.1c0.1,0.1,0.1,0.3,0,0.4c-1.1,0.8-2.1,1.7-3,2.7
		C28,12.4,27.9,12.4,27.8,12.4z M68.9,9.7c-0.1,0-0.1,0-0.2-0.1c-1.1-0.8-2.2-1.6-3.4-2.2c-0.1-0.1-0.2-0.2-0.1-0.3
		C65.3,7,65.5,6.9,65.6,7c1.2,0.7,2.3,1.4,3.4,2.3c0.1,0.1,0.1,0.2,0.1,0.4C69,9.7,68.9,9.7,68.9,9.7z M34.3,7.5
		c-0.1,0-0.2-0.1-0.2-0.1c-0.1-0.1,0-0.3,0.1-0.3c1.2-0.7,2.4-1.2,3.7-1.8c0.1-0.1,0.3,0,0.3,0.1c0,0.1,0,0.3-0.1,0.3
		c-1.3,0.5-2.5,1.1-3.7,1.7C34.4,7.5,34.3,7.5,34.3,7.5z M61.8,5.7C61.8,5.7,61.8,5.7,61.8,5.7c-1.3-0.5-2.6-1-3.9-1.3
		c-0.1,0-0.2-0.2-0.2-0.3c0-0.1,0.2-0.2,0.3-0.2c1.3,0.4,2.6,0.8,3.9,1.3c0.1,0.1,0.2,0.2,0.1,0.3C62,5.6,61.9,5.7,61.8,5.7z
		 M41.8,4.5c-0.1,0-0.2-0.1-0.2-0.2c0-0.1,0-0.3,0.2-0.3c1.3-0.3,2.7-0.6,4-0.8c0.1,0,0.3,0.1,0.3,0.2c0,0.1-0.1,0.3-0.2,0.3
		C44.5,3.9,43.2,4.2,41.8,4.5C41.9,4.5,41.9,4.5,41.8,4.5z M54,3.6C54,3.6,53.9,3.6,54,3.6c-1.3-0.2-2.6-0.2-4-0.2h-0.1
		c-0.2,0-0.2-0.1-0.3-0.2s0.1-0.2,0.2-0.3H50l0,0c1.3,0,2.7,0.1,4,0.2c0.1,0,0.2,0.1,0.2,0.3C54.2,3.5,54.1,3.6,54,3.6z"/>
	<g>
		<g>
			<path class="st4" d="M68.2,40.1c0,0,2.3-0.3,1.8,2.2c0,0-0.1,4.3-3.1,4.2l-2.4-2.6L68.2,40.1z"/>
			<path class="st5" d="M68.1,40.4c0,0,2.1-0.3,1.7,2c0,0-0.1,3.9-2.8,3.8l-2.2-2.4L68.1,40.4z"/>
			<path class="st4" d="M68.6,42.3c0-0.3,0-0.7,0.3-0.8c0.4,0,0.6,0.4,0.6,0.7c-0.1,1-0.8,1.9-1.5,2.6l0,0c0.1-0.2,0.2-0.3,0.3-0.5
				c0.4-0.7,1-1.3,1.1-2.1c0-0.2,0-0.4-0.2-0.5c-0.1-0.1-0.4-0.1-0.4,0.1C68.6,41.9,68.6,42.2,68.6,42.3L68.6,42.3L68.6,42.3z"/>
		</g>
		<g>
			<path class="st4" d="M31.3,40.1c0,0-2.3-0.3-1.8,2.2c0,0,0.1,4.3,3.1,4.2l2.4-2.6L31.3,40.1z"/>
			<path class="st5" d="M31.3,40.4c0,0-2.1-0.3-1.7,2c0,0,0.1,3.9,2.8,3.8l2.2-2.4L31.3,40.4z"/>
			<path class="st4" d="M30.8,42.3c0-0.2,0-0.4-0.1-0.6c-0.1-0.2-0.3-0.2-0.4-0.1c-0.1,0.1-0.2,0.3-0.2,0.5c0.1,0.8,0.7,1.4,1.1,2.1
				c0.1,0.2,0.2,0.3,0.3,0.5l0,0c-0.7-0.7-1.4-1.6-1.5-2.6c0-0.2,0.1-0.5,0.2-0.6c0.2-0.2,0.5-0.1,0.6,0.1
				C30.9,41.9,30.9,42.1,30.8,42.3L30.8,42.3L30.8,42.3z"/>
		</g>
		<ellipse class="st6" cx="49.7" cy="38.3" rx="18.6" ry="22"/>
		<ellipse class="st5" cx="49.7" cy="38.3" rx="18.3" ry="21.6"/>
		<path class="st3" d="M46.5,36.5c-1.2-0.8-2.4-1.4-3.7-2c-1.4-0.6-2.9-1-4.3-1.3c-1.2,0.8-2.3,1.7-3.2,2.8c1.2-0.2,2.3-0.6,3.4-1.1
			C41.2,35.8,43.8,36.5,46.5,36.5z"/>
		<path class="st3" d="M64.3,36c-0.9-1.1-2-2-3.2-2.8l-0.4,0.1C58,34,55.3,34.9,53,36.5c2.7,0,5.3-0.7,7.9-1.6
			C62,35.4,63.1,35.8,64.3,36z"/>
		<path class="st3" d="M42.1,37.2c-2.1-0.4-4.5,0.2-6,1.8c1.3-0.6,2.7-1,4.2-1.3c-0.9,0.7-1.6,2-1.6,3.5c0,2.2,1.4,4,3.2,4
			s3.2-1.8,3.2-4C45.1,39.1,43.8,37.3,42.1,37.2z"/>
		<path class="st3" d="M58.9,37.7c1.4,0.3,2.8,0.7,4.2,1.3c-1.4-1.6-3.9-2.2-6-1.8c-1.6,0.2-2.9,1.9-2.9,4c0,2.2,1.4,4,3.2,4
			c1.7,0,3.2-1.8,3.2-4C60.5,39.7,59.9,38.4,58.9,37.7z"/>
		<path class="st4" d="M47,51.2c0,0,3.8,1,5.7-0.7c0,0,1.8,4.2-1.9,5.2C50.7,55.7,46.6,57,47,51.2z"/>
		<path class="st7" d="M47,51.3c0,0,3.8,0.9,5.6-0.7c0,0,1.5,3.9-2,4.8C50.6,55.5,46.7,56.7,47,51.3z"/>
		<ellipse class="st8" cx="40.3" cy="47.9" rx="2.9" ry="0.9"/>
		<path class="st3" d="M39.5,46.9c-0.4,0.6-0.9,1.2-1.3,1.7C38.6,48,39.1,47.5,39.5,46.9C39.5,46.9,39.1,47.5,39.5,46.9z"/>
		<path class="st3" d="M39.5,48.6c0.4-0.5,0.9-1,1.4-1.5l0,0c0.3,0.5,0.6,0.9,0.8,1.4l0,0c0.4-0.5,0.9-0.9,1.3-1.4
			c-0.4,0.5-0.9,1-1.3,1.4c-0.3-0.5-0.6-0.9-0.9-1.4l0,0C40.5,47.6,40,48.1,39.5,48.6L39.5,48.6z"/>
		<ellipse class="st8" cx="59" cy="47.9" rx="2.9" ry="0.9"/>
		<path class="st3" d="M58.2,46.9c-0.4,0.6-0.9,1.2-1.3,1.7C57.3,48,57.7,47.5,58.2,46.9C58.2,46.9,57.7,47.5,58.2,46.9z"/>
		<path class="st3" d="M58.2,48.6c0.4-0.5,0.9-1,1.4-1.5l0,0c0.3,0.5,0.6,0.9,0.8,1.4l0,0c0.4-0.5,0.9-0.9,1.3-1.4
			c-0.4,0.5-0.9,1-1.3,1.4c-0.3-0.5-0.6-0.9-0.9-1.4l0,0C59.2,47.6,58.7,48.1,58.2,48.6L58.2,48.6z"/>
		<path class="st6" d="M36,35.1h-3.5l-1,4.5c0,0-0.3-4.3-0.8-5.2c0,0-7.7-9.4,4.1-16.3c0,0,2-9.1,10.9-9.9c0,0,14.1-1.6,22.2,8.6
			c0,0,8.4,9,1,19.8l-1.2,4.5c0,0,0.5-5.5-0.4-6.3c0,0-0.6,1-1.2,1.3c0,0,0.1-9.8-11.2-11.1c0,0-4.4-0.6-10.1,0
			C44.6,25,36.3,25.2,36,35.1z"/>
		<path class="st4" d="M35.8,34.9l-3.5,0l-0.8,3.6c0,0-0.1-3.5-0.7-4.3c0,0-7.6-9.3,4.1-16.1c0,0,2-9,10.7-9.8
			c0,0,13.9-1.6,21.9,8.5c0,0,8.3,8.9,1,19.6l-0.9,3.9c0,0,0.4-5.1-0.5-5.7c0,0-0.5,0.9-1.2,1.2c0,0,0-10-11.2-11.2
			c0,0-4.6-0.6-10.2,0.1C44.6,24.7,36.1,25.1,35.8,34.9z"/>
		<path class="st9" d="M35.9,18.4c0,0,0.4-4.1,2.8-5.1c0,0,5.4,2.8,3.8,10.9C42.5,24.2,42.1,20.6,35.9,18.4z"/>
		<path class="st9" d="M35.5,19.2c0,0,2.2,6.1,6,6.2c0,0-5.4,2.2-8.3-2.6C33.1,22.7,31.8,19.4,35.5,19.2z"/>
	</g>
</g>
</svg>
